<svg width="460" height="260" xmlns="http://www.w3.org/2000/svg" xmlns:xlink="http://www.w3.org/1999/xlink" viewBox="0 0 800 300">
 <defs>
  <linearGradient id="imagebot_140">
   <stop stop-color="#2c7e35" id="imagebot_141" offset="0"/>
  </linearGradient>
  <linearGradient y2="0.52196" x2="1.02645" y1="0.52196" x1="0.0278" id="imagebot_59" xlink:href="#imagebot_140"/>
 </defs>
 <metadata id="imagebot_139">image/svg+xml</metadata>
 <g id="imagebot_2" label="Layer 1">
  <g label="Layer 1" display="inline" transform="translate(70.6145 323.006) matrix(2.7828 0 0 2.92234 -1918.28 -4337.44)" id="imagebot_63">
   <rect fill="#06350b" stroke="#000000" stroke-width="1.22238" stroke-linecap="round" stroke-linejoin="round" stroke-miterlimit="4" id="imagebot_89" width="156.63068" height="42.28999" x="714.03149" y="1506.4817" ry="3.45046" transform="matrix(0.99447736,-0.10495134,0,1,0,0)"/>
   <rect fill="#0b6314" stroke="#000000" stroke-width="0.82287" stroke-linecap="round" stroke-linejoin="round" stroke-miterlimit="4" id="imagebot_88" width="70.43251" height="42.63743" x="812.77002" y="1506.4917" ry="3.47881" transform="matrix(0.995323,-0.09660288,0,1,0,0)"/>
   <g id="imagebot_85" transform="matrix(0.94224338,0,0,0.91810189,510.92361,-21.95639)">
    <path fill="#3e9647" stroke="#000000" stroke-width="1.0021" stroke-linecap="round" stroke-linejoin="round" stroke-miterlimit="4" id="imagebot_87" d="M355.41406,1560.1265C369.54633,1558.7867 377.94827,1560.3875 387.15731,1561.5741C392.25647,1562.2311 396.54919,1565.0709 396.85365,1570.2012C397.24911,1576.8649 395.9572,1584.9157 394.06526,1592.1512L395.13772,1614.1514C395.38795,1619.2847 390.06694,1622.8636 385.01239,1621.9333L355.41406,1616.4857C350.35952,1615.5554 346.14671,1611.9254 346.14671,1606.786L346.14671,1568.9808C346.14671,1563.8414 350.29667,1560.6116 355.41406,1560.1265z"/>
    <path fill="#287631" stroke="#000000" stroke-width="1" stroke-linecap="round" stroke-linejoin="round" stroke-miterlimit="4" id="imagebot_86" d="M387.18972,1564.3281L386.69666,1564.3281C382.708,1564.3281 379.49692,1567.5392 379.49692,1571.5279L379.49692,1612.3454C379.49692,1616.3341 382.708,1619.5452 386.69666,1619.5452C391.08761,1618.917 392.28441,1615.8242 392.38946,1612.3454L390.95759,1590.3282C392.15629,1584.3899 394.20537,1583.5539 394.38946,1571.5279C394.45056,1567.5396 391.17837,1564.3281 387.18972,1564.3281z"/>
   </g>
   <path fill="#2c7e35" stroke="#000000" stroke-width="0" stroke-linecap="round" stroke-linejoin="round" stroke-miterlimit="4" d="M843.59603,1418.0188C850.94783,1418.4433 857.34007,1416.181 866.2339,1420.9231C865.69953,1429.3682 866.1487,1432.4036 866.2339,1437.4411L839.22281,1437.4411L843.59603,1418.0188z" id="imagebot_84"/>
   <path fill="#3e9647" stroke="#000000" stroke-width="0.87267" stroke-linecap="round" stroke-linejoin="round" stroke-miterlimit="4" d="M794.38784,1433.2687L835.81713,1430.6775C848.39927,1431.1454 857.67424,1432.9361 866.26401,1435.0009C868.52095,1435.5434 870.46613,1436.2546 870.46613,1438.407L870.46613,1444.3376C870.46613,1446.49 868.59199,1448.4365 866.26401,1448.7019L828.43852,1453.0145C826.11054,1453.28 824.23639,1451.7608 824.23639,1449.6084L824.23639,1443.6779C824.23639,1437.6041 792.18629,1433.4064 794.38784,1433.2687z" id="imagebot_83"/>
   <path fill="#2c7e35" fill-rule="evenodd" stroke="#000000" stroke-width="0" stroke-miterlimit="4" d="M833.56336,1430.3669C845.83902,1432.8508 862.37055,1434.6652 867.00565,1437.0554C859.54912,1436.3483 828.06018,1437.7847 823.65929,1440.9141L806.03777,1432.5535C815.79953,1432.5285 823.85167,1428.9793 833.56336,1430.3669z" id="imagebot_82"/>
   <g id="imagebot_79" transform="matrix(0.85858322,0,0,1.0192124,578.2736,-168.6906)">
    <path fill="#287631" stroke="#000000" stroke-width="1.05082" stroke-linecap="round" stroke-linejoin="round" stroke-miterlimit="4" transform="matrix(1,0,0.07949808,0.99683502,0,0)" d="M132.29024,1526.6805C149.65676,1523.2715 167.42819,1524.8926 175.97131,1526.6805C181.39481,1527.8155 186.17377,1529.8966 186.17377,1533.8915L186.17377,1566.0868C186.17377,1570.0817 181.63829,1572.9463 175.97131,1573.2978L135.35107,1575.817C129.6841,1576.1685 122.62498,1570.0164 122.08778,1566.0868C120.53496,1554.728 117.99156,1542.9691 122.08778,1533.8915C123.79932,1530.0986 126.68072,1527.7816 132.29024,1526.6805z" id="imagebot_81"/>
    <path fill="#3e9647" stroke="#000000" stroke-width="0.9854" stroke-linecap="round" stroke-linejoin="round" stroke-miterlimit="4" transform="matrix(1,0,0.07441208,0.99722758,0,0)" d="M146.32757,1527.7413C176.56349,1524.7081 176.84156,1527.1489 188.53277,1527.7413C192.38441,1527.9365 196.96707,1530.9185 197.48044,1534.7306C198.8378,1544.81 198.17824,1554.2616 197.00497,1563.5534C196.51546,1567.4301 194.29023,1571.8432 190.49114,1572.9257C171.26487,1578.4041 158.86865,1575.204 144.7032,1574.5282C140.84916,1574.3443 139.46347,1569.799 139.33827,1565.9364C139.00434,1555.6338 137.25968,1545.7508 139.33827,1534.7306C140.06633,1530.8706 142.45009,1528.1303 146.32757,1527.7413z" id="imagebot_80"/>
   </g>
   <rect fill="#287631" stroke="#000000" stroke-width="0.96811" stroke-linecap="round" stroke-linejoin="round" stroke-miterlimit="4" id="imagebot_78" width="44.28963" height="17.60046" x="830.6792" y="1547.7654" ry="4.99096" transform="matrix(0.9935753,-0.11317297,0,1,0,0)"/>
   <g id="imagebot_74" transform="matrix(1.1013815,0.01437659,0,0.99921683,144.25373,-164.55725)">
    <path fill="#3e9647" stroke="#000000" stroke-width="0.87267" stroke-linecap="round" stroke-linejoin="round" stroke-miterlimit="4" id="imagebot_77" d="M547.4267,1595.3281L589.27239,1590.3369C594.78297,1589.727 618.21923,1593.4752 618.85459,1600.4664L618.85459,1606.397C618.85459,1608.5494 616.98045,1610.4959 614.65247,1610.7613L576.82698,1615.0739C574.499,1615.3394 572.62485,1613.8202 572.62485,1611.6678L572.62485,1605.7373C572.62485,1603.5848 545.09877,1595.6058 547.4267,1595.3281z"/>
    <path fill="#2c7e35" fill-rule="evenodd" stroke="#000000" stroke-width="0" stroke-miterlimit="4" id="imagebot_76" d="M596.30775,1591.987C608.12802,1594.8121 609.5944,1597.5972 615.39411,1599.1148C607.93758,1598.4077 576.44864,1599.8441 572.04775,1602.9735L554.42623,1594.6129C564.18799,1594.5879 586.59606,1590.5994 596.30775,1591.987z"/>
    <rect fill="#287631" stroke="#000000" stroke-width="0.96811" stroke-linecap="round" stroke-linejoin="round" stroke-miterlimit="4" transform="matrix(0.9935753,-0.11317297,0,1,0,0)" ry="4.99096" y="1681.165" x="577.44073" height="17.60046" width="44.28963" id="imagebot_75"/>
   </g>
   <g id="imagebot_71" transform="matrix(0.82279345,0,0,1.0195742,539.23361,-166.72141)">
    <path fill="#287631" stroke="#000000" stroke-width="1.05082" stroke-linecap="round" stroke-linejoin="round" stroke-miterlimit="4" transform="matrix(1,0,0.07949808,0.99683502,0,0)" d="M132.29024,1526.6805C149.65676,1523.2715 167.42819,1524.8926 175.97131,1526.6805C181.39481,1527.8155 186.17377,1529.8966 186.17377,1533.8915L186.17377,1566.0868C186.17377,1570.0817 181.62347,1573.2978 175.97131,1573.2978L132.29024,1573.2978C126.63808,1573.2978 122.62498,1570.0164 122.08778,1566.0868C120.53496,1554.728 117.99156,1542.9691 122.08778,1533.8915C123.79932,1530.0986 126.68072,1527.7816 132.29024,1526.6805z" id="imagebot_73"/>
    <path fill="#3e9647" stroke="#000000" stroke-width="0.9854" stroke-linecap="round" stroke-linejoin="round" stroke-miterlimit="4" transform="matrix(1,0,0.07441208,0.99722758,0,0)" d="M146.32757,1527.7413C176.56349,1524.7081 176.84156,1527.1489 188.53277,1527.7413C192.38441,1527.9365 196.96707,1530.9185 197.48044,1534.7306C198.8378,1544.81 198.17824,1554.2616 197.00497,1563.5534C196.51546,1567.4301 194.29023,1571.8432 190.49114,1572.9257C171.26487,1578.4041 161.22387,1577.2644 147.05842,1576.5886C143.20438,1576.4047 140.19432,1573.4619 140.06912,1569.5993C139.73519,1559.2967 137.25968,1545.7508 139.33827,1534.7306C140.06633,1530.8706 142.45009,1528.1303 146.32757,1527.7413z" id="imagebot_72"/>
   </g>
   <g display="inline" id="imagebot_67" transform="matrix(1.1013815,0.01437659,0,0.99921683,95.35166,-159.66613)">
    <path fill="#3e9647" stroke="#000000" stroke-width="0.87267" stroke-linecap="round" stroke-linejoin="round" stroke-miterlimit="4" id="imagebot_70" d="M547.4267,1595.3281L589.27239,1590.3369C594.78297,1589.727 618.21923,1593.4752 618.85459,1600.4664L618.85459,1606.397C618.85459,1608.5494 616.98045,1610.4959 614.65247,1610.7613L576.82698,1615.0739C574.499,1615.3394 572.62485,1613.8202 572.62485,1611.6678L572.62485,1605.7373C572.62485,1603.5848 545.09877,1595.6058 547.4267,1595.3281z"/>
    <path fill="#2c7e35" fill-rule="evenodd" stroke="#000000" stroke-width="0" stroke-miterlimit="4" id="imagebot_69" d="M596.30775,1591.987C608.12802,1594.8121 609.5944,1597.5972 615.39411,1599.1148C607.93758,1598.4077 576.44864,1599.8441 572.04775,1602.9735L554.42623,1594.6129C564.18799,1594.5879 586.59606,1590.5994 596.30775,1591.987z"/>
    <rect fill="#287631" stroke="#000000" stroke-width="0.96811" stroke-linecap="round" stroke-linejoin="round" stroke-miterlimit="4" transform="matrix(0.9935753,-0.11317297,0,1,0,0)" ry="4.99096" y="1681.165" x="577.44073" height="17.60046" width="44.28963" id="imagebot_68"/>
   </g>
   <g display="inline" id="imagebot_64" transform="matrix(0.865099,0,0,1.0191294,480.77552,-162.07248)">
    <path fill="#287631" stroke="#000000" stroke-width="1.05082" stroke-linecap="round" stroke-linejoin="round" stroke-miterlimit="4" transform="matrix(1,0,0.07949808,0.99683502,0,0)" d="M132.29024,1526.6805C149.65676,1523.2715 167.42819,1524.8926 175.97131,1526.6805C181.39481,1527.8155 186.17377,1529.8966 186.17377,1533.8915L186.17377,1566.0868C186.17377,1570.0817 181.62347,1573.2978 175.97131,1573.2978L132.29024,1573.2978C126.63808,1573.2978 122.62498,1570.0164 122.08778,1566.0868C120.53496,1554.728 117.99156,1542.9691 122.08778,1533.8915C123.79932,1530.0986 126.68072,1527.7816 132.29024,1526.6805z" id="imagebot_66"/>
    <path fill="#3e9647" stroke="#000000" stroke-width="0.9854" stroke-linecap="round" stroke-linejoin="round" stroke-miterlimit="4" transform="matrix(1,0,0.07441208,0.99722758,0,0)" d="M146.32757,1527.7413C176.56349,1524.7081 176.84156,1527.1489 188.53277,1527.7413C192.38441,1527.9365 196.96707,1530.9185 197.48044,1534.7306C198.8378,1544.81 198.17824,1554.2616 197.00497,1563.5534C196.51546,1567.4301 194.29023,1571.8432 190.49114,1572.9257C171.26487,1578.4041 161.22387,1577.2644 147.05842,1576.5886C143.20438,1576.4047 140.19432,1573.4619 140.06912,1569.5993C139.73519,1559.2967 137.25968,1545.7508 139.33827,1534.7306C140.06633,1530.8706 142.45009,1528.1303 146.32757,1527.7413z" id="imagebot_65"/>
   </g>
  </g>
  <g label="Layer 1" display="inline" transform="translate(0 2.5) matrix(2.80381 0 0 2.9444 -623.125 -4436.12)" id="imagebot_57">
   <g id="imagebot_60">
    <path fill="#3e9647" stroke="#000000" stroke-width="1.0021" stroke-linecap="round" stroke-linejoin="round" stroke-miterlimit="4" id="imagebot_62" d="M244.15934,1551.7955C254.44288,1550.7903 264.82332,1550.2696 275.90259,1553.2431C280.86639,1554.5753 285.16995,1557.8034 285.16995,1562.9428L285.16995,1604.748C285.16995,1609.8874 280.96799,1614.4717 275.90259,1613.6023L244.15934,1608.1547C239.09395,1607.2854 235.55076,1603.5521 234.89199,1598.4551C234.13064,1592.5644 236.04161,1582.9834 234.43406,1577.2202C231.84681,1567.9447 233.0361,1565.7854 234.89199,1560.6499C236.63873,1555.8164 239.04427,1552.2955 244.15934,1551.7955z"/>
    <path fill="#287631" stroke="#000000" stroke-width="1" stroke-linecap="round" stroke-linejoin="round" stroke-miterlimit="4" id="imagebot_61" d="M275.01337,1556.27L275.50643,1556.27C279.49509,1556.27 282.70617,1559.4811 282.70617,1563.4698L282.70617,1604.2873C282.70617,1608.276 279.49509,1611.4871 275.50643,1611.4871C271.11548,1610.8589 269.91868,1607.7661 269.81363,1604.2873L271.2455,1582.2701C270.0468,1576.3318 267.99772,1575.4958 267.81363,1563.4698C267.75253,1559.4815 271.02472,1556.27 275.01337,1556.27z"/>
   </g>
   <path fill="url(#imagebot_59)" fill-rule="evenodd" stroke="#000000" stroke-width="0" stroke-miterlimit="4" d="M235.07312,1569.4237L262.68747,1570.1573C271.57686,1581.6489 261.04125,1605.6056 269.20745,1611.9385L241.07136,1606.1449C234.55653,1600.0374 236.57784,1593.2078 237.05933,1580.0299C237.16494,1577.1395 233.54195,1572.7131 235.07312,1569.4237z" id="imagebot_58"/>
  </g>
  <title>Layer 1</title>
 </g>
</svg>